<svg xmlns="http://www.w3.org/2000/svg" viewBox="0 0 920 690" role="img" aria-labelledby="title desc">
  <title id="title">福岡県のやさしい地図イラスト</title>
  <desc id="desc">福岡県全域を表す、ベージュと淡い黄色のやさしい水彩風マップです。</desc>
  <defs>
    <filter id="softShadow" x="-20%" y="-20%" width="140%" height="140%">
      <feDropShadow dx="0" dy="10" stdDeviation="12" flood-color="#8d6b4e" flood-opacity="0.08"/>
    </filter>
    <filter id="paper" x="-5%" y="-5%" width="110%" height="110%">
      <feTurbulence type="fractalNoise" baseFrequency="0.018" numOctaves="3" seed="8" result="noise"/>
      <feColorMatrix in="noise" type="saturate" values="0" result="mono"/>
      <feComponentTransfer in="mono" result="softNoise">
        <feFuncA type="table" tableValues="0 0.11"/>
      </feComponentTransfer>
      <feBlend in="SourceGraphic" in2="softNoise" mode="multiply"/>
    </filter>
    <linearGradient id="mapFill" x1="12%" y1="8%" x2="88%" y2="92%">
      <stop offset="0" stop-color="#fff8e9"/>
      <stop offset="0.48" stop-color="#fff0c7"/>
      <stop offset="1" stop-color="#ffe1c8"/>
    </linearGradient>
    <radialGradient id="warmWash" cx="55%" cy="48%" r="58%">
      <stop offset="0" stop-color="#fffdf7" stop-opacity="0.62"/>
      <stop offset="0.58" stop-color="#fff3cf" stop-opacity="0.42"/>
      <stop offset="1" stop-color="#f5bf9d" stop-opacity="0.18"/>
    </radialGradient>
  </defs>

  <g filter="url(#softShadow)">
    <path d="M394 42c34 3 73 13 99 35 29 24 51 22 86 19 26-2 45 7 66 23 20 15 35 39 64 41 23 2 43 2 61 19 17 16 23 39 18 63-5 22-23 42-19 66 4 27 27 44 30 71 4 31-13 55-42 68-25 12-54 9-78 24-22 14-31 38-46 59-18 25-42 42-75 39-35-3-58-24-90-35-28-10-58-2-82 14-30 20-48 48-84 58-31 8-59 0-82-20-23-20-39-42-70-50-26-6-51-2-77-11-28-10-48-30-57-58-8-24-2-51 14-71 18-22 43-27 67-37 22-9 39-26 45-50 6-26-6-49-10-74-4-27 7-49 31-62 25-13 54-9 79-22 27-14 35-42 55-63 19-21 43-29 71-26z" fill="url(#mapFill)" stroke="#caa47c" stroke-width="5" stroke-linejoin="round" filter="url(#paper)" opacity="0.95"/>
    <path d="M394 42c34 3 73 13 99 35 29 24 51 22 86 19 26-2 45 7 66 23 20 15 35 39 64 41 23 2 43 2 61 19 17 16 23 39 18 63-5 22-23 42-19 66 4 27 27 44 30 71 4 31-13 55-42 68-25 12-54 9-78 24-22 14-31 38-46 59-18 25-42 42-75 39-35-3-58-24-90-35-28-10-58-2-82 14-30 20-48 48-84 58-31 8-59 0-82-20-23-20-39-42-70-50-26-6-51-2-77-11-28-10-48-30-57-58-8-24-2-51 14-71 18-22 43-27 67-37 22-9 39-26 45-50 6-26-6-49-10-74-4-27 7-49 31-62 25-13 54-9 79-22 27-14 35-42 55-63 19-21 43-29 71-26z" fill="url(#warmWash)" opacity="0.82"/>

    <path d="M214 159c-18-5-36 4-45 21-8 15-5 32 4 45 12 18 35 23 55 18 16-4 31-15 37-31 7-19 2-40-14-51-10-7-24-9-37-2z" fill="#fff3cf" stroke="#d2ac82" stroke-width="4" opacity="0.78" filter="url(#paper)"/>
    <path d="M172 502c-16-6-34 1-42 16-7 13-3 29 8 39 13 12 34 12 48 1 13-10 17-28 9-42-5-8-13-12-23-14z" fill="#fff1c8" stroke="#d2ac82" stroke-width="4" opacity="0.72"/>
    <path d="M121 340c-18 6-39-2-49-17-9-14-7-31 5-43 12-13 31-17 47-8 17 9 26 29 21 47-3 10-12 18-24 21z" fill="#fff6dd" stroke="#d2ac82" stroke-width="4" opacity="0.72"/>
    <path d="M100 203c-9-10-9-25 0-35 10-11 28-11 38-1 10 10 9 27-2 37-10 9-27 9-36-1z" fill="#fff8e8" stroke="#d2ac82" stroke-width="4" opacity="0.72"/>
    <path d="M323 95c-7-8-7-20 1-28 8-9 22-9 31-1 8 8 8 21 0 30-8 8-23 8-32-1z" fill="#fff6db" stroke="#d2ac82" stroke-width="4" opacity="0.72"/>
    <path d="M280 48c-12-7-15-23-7-35 8-11 26-12 36-2 10 10 8 27-4 35-7 5-17 6-25 2z" fill="#fff8e8" stroke="#d2ac82" stroke-width="4" opacity="0.72"/>

    <path d="M392 112c36 14 66 40 83 74 18 37 18 79-1 115-18 34-51 58-88 66" fill="none" stroke="#d9bd96" stroke-width="2.2" stroke-dasharray="8 13" opacity="0.42"/>
    <path d="M528 105c-16 43-18 88-5 132 12 41 36 75 70 102" fill="none" stroke="#d9bd96" stroke-width="2.2" stroke-dasharray="8 13" opacity="0.38"/>
    <path d="M270 424c49-10 96-3 138 20 33 18 58 46 74 81" fill="none" stroke="#d9bd96" stroke-width="2.2" stroke-dasharray="8 13" opacity="0.32"/>
  </g>
</svg>
