<svg xmlns="http://www.w3.org/2000/svg" viewBox="0 0 920 690" role="img" aria-labelledby="title desc">
  <title id="title">福岡県の対応エリアマップ</title>
  <desc id="desc">福岡県を表す、背景透過の水彩風マップイラストです。</desc>
  <defs>
    <filter id="paper" x="-6%" y="-6%" width="112%" height="112%">
      <feTurbulence type="fractalNoise" baseFrequency="0.018" numOctaves="3" seed="8" result="noise"/>
      <feColorMatrix in="noise" type="saturate" values="0" result="mono"/>
      <feComponentTransfer in="mono" result="softNoise"><feFuncA type="table" tableValues="0 0.12"/></feComponentTransfer>
      <feBlend in="SourceGraphic" in2="softNoise" mode="multiply"/>
    </filter>
    <linearGradient id="mapFill" x1="12%" y1="8%" x2="88%" y2="92%">
      <stop offset="0" stop-color="#fff9ec"/>
      <stop offset="0.44" stop-color="#fff0c9"/>
      <stop offset="0.74" stop-color="#ffe8b9"/>
      <stop offset="1" stop-color="#ffe4cd"/>
    </linearGradient>
    <radialGradient id="wash" cx="54%" cy="48%" r="62%">
      <stop offset="0" stop-color="#fffef8" stop-opacity="0.72"/>
      <stop offset="0.55" stop-color="#fff4ce" stop-opacity="0.5"/>
      <stop offset="1" stop-color="#f5bf9d" stop-opacity="0.18"/>
    </radialGradient>
  </defs>
  <g filter="url(#paper)">
    <path d="M400 44c31 3 65 14 88 34 29 25 52 23 87 20 25-2 45 7 65 23 21 16 35 39 63 42 24 2 45 3 63 20 18 17 24 41 18 65-5 22-23 41-19 66 4 27 27 45 30 72 4 31-13 55-42 69-25 12-55 9-79 24-22 14-31 38-46 59-18 25-43 43-76 40-35-3-59-24-91-36-28-10-58-2-82 14-30 20-49 48-85 58-31 8-60 0-83-20-23-20-40-43-71-50-26-6-52-2-78-11-28-10-49-31-58-59-8-24-2-52 15-72 18-22 43-27 68-37 22-9 39-26 45-50 6-26-6-49-10-75-4-27 7-49 31-62 25-13 55-9 80-22 27-14 36-43 56-64 19-21 43-30 71-27z" fill="url(#mapFill)" stroke="#caa47c" stroke-width="5" stroke-linejoin="round" opacity="0.96"/>
    <path d="M400 44c31 3 65 14 88 34 29 25 52 23 87 20 25-2 45 7 65 23 21 16 35 39 63 42 24 2 45 3 63 20 18 17 24 41 18 65-5 22-23 41-19 66 4 27 27 45 30 72 4 31-13 55-42 69-25 12-55 9-79 24-22 14-31 38-46 59-18 25-43 43-76 40-35-3-59-24-91-36-28-10-58-2-82 14-30 20-49 48-85 58-31 8-60 0-83-20-23-20-40-43-71-50-26-6-52-2-78-11-28-10-49-31-58-59-8-24-2-52 15-72 18-22 43-27 68-37 22-9 39-26 45-50 6-26-6-49-10-75-4-27 7-49 31-62 25-13 55-9 80-22 27-14 36-43 56-64 19-21 43-30 71-27z" fill="url(#wash)" opacity="0.88"/>
    <path d="M214 159c-18-5-36 4-45 21-8 15-5 32 4 45 12 18 35 23 55 18 16-4 31-15 37-31 7-19 2-40-14-51-10-7-24-9-37-2z" fill="#fff3cf" stroke="#d2ac82" stroke-width="4" opacity="0.78"/>
    <path d="M172 502c-16-6-34 1-42 16-7 13-3 29 8 39 13 12 34 12 48 1 13-10 17-28 9-42-5-8-13-12-23-14z" fill="#fff1c8" stroke="#d2ac82" stroke-width="4" opacity="0.72"/>
    <path d="M121 340c-18 6-39-2-49-17-9-14-7-31 5-43 12-13 31-17 47-8 17 9 26 29 21 47-3 10-12 18-24 21z" fill="#fff6dd" stroke="#d2ac82" stroke-width="4" opacity="0.72"/>
    <path d="M100 203c-9-10-9-25 0-35 10-11 28-11 38-1 10 10 9 27-2 37-10 9-27 9-36-1z" fill="#fff8e8" stroke="#d2ac82" stroke-width="4" opacity="0.72"/>
    <path d="M323 95c-7-8-7-20 1-28 8-9 22-9 31-1 8 8 8 21 0 30-8 8-23 8-32-1z" fill="#fff6db" stroke="#d2ac82" stroke-width="4" opacity="0.72"/>
    <path d="M280 48c-12-7-15-23-7-35 8-11 26-12 36-2 10 10 8 27-4 35-7 5-17 6-25 2z" fill="#fff8e8" stroke="#d2ac82" stroke-width="4" opacity="0.72"/>
    <path d="M392 112c36 14 66 40 83 74 18 37 18 79-1 115-18 34-51 58-88 66" fill="none" stroke="#d9bd96" stroke-width="2.2" stroke-dasharray="8 13" opacity="0.38"/>
    <path d="M528 105c-16 43-18 88-5 132 12 41 36 75 70 102" fill="none" stroke="#d9bd96" stroke-width="2.2" stroke-dasharray="8 13" opacity="0.34"/>
    <path d="M270 424c49-10 96-3 138 20 33 18 58 46 74 81" fill="none" stroke="#d9bd96" stroke-width="2.2" stroke-dasharray="8 13" opacity="0.3"/>
  </g>
</svg>