<svg xmlns="http://www.w3.org/2000/svg" viewBox="0 0 900 818" role="img" aria-labelledby="title desc"><title id="title">福岡県の対応エリアマップ</title><desc id="desc">福岡県を表す背景透過の水彩風マップイラストです。</desc><defs><linearGradient id="mapFill" x1="10%" y1="6%" x2="90%" y2="94%"><stop offset="0" stop-color="#fff9ec"/><stop offset=".45" stop-color="#fff0c9"/><stop offset=".74" stop-color="#ffe8b9"/><stop offset="1" stop-color="#ffe3ce"/></linearGradient><radialGradient id="wash" cx="54%" cy="48%" r="62%"><stop offset="0" stop-color="#fffef8" stop-opacity=".7"/><stop offset=".56" stop-color="#fff4ce" stop-opacity=".45"/><stop offset="1" stop-color="#f5bf9d" stop-opacity=".18"/></radialGradient></defs><g><path d="M 763 0 L 759 0 L 753 5 L 740 3 L 731 14 L 720 14 L 708 24 L 697 27 L 688 38 L 685 50 L 669 66 L 651 67 L 650 58 L 644 52 L 644 45 L 639 41 L 618 35 L 613 35 L 607 41 L 600 41 L 599 34 L 591 29 L 580 33 L 569 32 L 562 40 L 545 39 L 540 34 L 519 36 L 512 44 L 510 51 L 502 52 L 496 56 L 489 67 L 489 78 L 480 86 L 464 91 L 448 92 L 439 90 L 436 87 L 435 80 L 430 77 L 426 77 L 413 84 L 402 85 L 394 81 L 394 73 L 386 60 L 378 60 L 373 66 L 373 71 L 379 82 L 386 85 L 386 90 L 393 99 L 393 109 L 383 123 L 377 123 L 372 117 L 358 117 L 354 122 L 355 133 L 366 137 L 366 146 L 362 152 L 362 163 L 366 167 L 375 167 L 377 170 L 375 193 L 367 203 L 355 207 L 353 217 L 340 228 L 321 234 L 311 234 L 304 226 L 297 225 L 291 232 L 292 240 L 297 246 L 312 247 L 325 256 L 331 253 L 332 246 L 336 242 L 345 238 L 357 238 L 361 258 L 355 263 L 355 269 L 352 271 L 349 279 L 349 290 L 327 291 L 316 300 L 304 299 L 300 295 L 291 295 L 284 290 L 277 295 L 276 305 L 264 305 L 263 294 L 268 286 L 267 280 L 260 276 L 248 277 L 245 275 L 242 259 L 247 255 L 247 246 L 240 240 L 238 235 L 230 233 L 223 241 L 223 253 L 216 260 L 208 264 L 197 263 L 189 270 L 188 279 L 190 287 L 186 292 L 179 296 L 170 296 L 164 290 L 157 290 L 144 303 L 146 316 L 153 319 L 166 315 L 169 328 L 187 329 L 187 335 L 181 339 L 181 342 L 176 347 L 161 347 L 154 357 L 142 354 L 137 358 L 122 358 L 115 365 L 112 380 L 98 380 L 92 386 L 92 401 L 88 408 L 93 413 L 105 409 L 108 405 L 123 406 L 129 402 L 139 402 L 148 408 L 159 408 L 170 398 L 182 398 L 189 402 L 194 402 L 205 394 L 217 394 L 232 402 L 253 399 L 264 408 L 265 416 L 278 420 L 292 436 L 303 436 L 308 442 L 313 444 L 313 452 L 319 458 L 317 471 L 323 479 L 329 479 L 333 475 L 347 474 L 349 464 L 359 462 L 368 452 L 381 452 L 384 455 L 385 492 L 382 502 L 374 503 L 367 501 L 363 504 L 361 511 L 344 510 L 341 514 L 341 521 L 331 523 L 327 529 L 327 536 L 319 543 L 313 543 L 308 538 L 304 538 L 298 543 L 298 551 L 296 553 L 289 553 L 284 549 L 279 549 L 276 551 L 273 561 L 266 561 L 261 556 L 255 558 L 251 563 L 251 569 L 255 573 L 255 585 L 241 592 L 240 600 L 244 611 L 252 613 L 254 616 L 256 631 L 255 647 L 259 652 L 268 656 L 266 672 L 270 676 L 282 676 L 284 678 L 285 688 L 295 693 L 296 703 L 302 711 L 302 732 L 298 741 L 288 751 L 284 767 L 284 777 L 273 781 L 268 787 L 267 794 L 272 799 L 294 800 L 295 809 L 304 817 L 311 817 L 320 809 L 321 797 L 325 793 L 347 790 L 353 793 L 365 794 L 369 793 L 376 786 L 384 786 L 400 792 L 406 791 L 415 782 L 415 752 L 424 746 L 426 739 L 430 736 L 442 735 L 451 723 L 468 720 L 472 715 L 472 705 L 474 703 L 481 703 L 486 699 L 492 699 L 497 702 L 505 702 L 509 706 L 519 705 L 522 701 L 522 690 L 527 681 L 529 663 L 533 660 L 539 660 L 542 668 L 547 671 L 569 671 L 574 678 L 583 684 L 588 692 L 599 694 L 624 713 L 641 716 L 650 720 L 662 734 L 687 736 L 691 733 L 692 728 L 708 715 L 713 705 L 714 694 L 723 685 L 721 675 L 723 659 L 732 653 L 734 644 L 728 635 L 715 634 L 710 626 L 697 623 L 698 607 L 692 602 L 692 596 L 698 591 L 711 589 L 713 579 L 708 573 L 703 572 L 705 562 L 700 555 L 700 549 L 706 545 L 708 533 L 705 518 L 697 510 L 697 505 L 707 498 L 707 493 L 711 486 L 726 485 L 731 479 L 731 474 L 728 470 L 730 461 L 728 441 L 732 434 L 732 427 L 737 421 L 752 414 L 754 405 L 759 398 L 782 389 L 794 392 L 812 389 L 825 399 L 836 394 L 855 397 L 859 392 L 869 391 L 872 388 L 872 383 L 865 376 L 865 370 L 869 363 L 868 349 L 877 345 L 884 335 L 894 335 L 897 332 L 894 314 L 899 307 L 899 302 L 896 298 L 884 291 L 884 282 L 881 277 L 866 271 L 861 266 L 861 260 L 855 253 L 836 254 L 834 252 L 834 243 L 829 238 L 821 236 L 800 238 L 790 251 L 780 250 L 775 243 L 775 237 L 772 232 L 763 225 L 761 212 L 757 208 L 750 206 L 750 197 L 754 193 L 754 186 L 746 178 L 743 162 L 746 137 L 740 134 L 732 141 L 718 140 L 718 133 L 727 131 L 732 126 L 734 116 L 738 115 L 742 110 L 739 97 L 744 96 L 748 91 L 745 76 L 752 67 L 752 61 L 758 58 L 760 44 L 767 36 L 768 29 L 765 24 L 765 17 L 769 12 L 769 7 Z" fill="url(#mapFill)" stroke="#caa47c" stroke-width="3.2" stroke-linejoin="round" opacity=".96"/><path d="M 35 409 L 25 413 L 24 427 L 17 435 L 6 435 L 0 440 L 0 446 L 3 449 L 22 452 L 25 462 L 30 465 L 38 463 L 44 458 L 48 452 L 48 443 L 53 443 L 64 436 L 64 429 L 62 427 L 48 424 L 46 415 Z" fill="url(#mapFill)" stroke="#caa47c" stroke-width="3.2" stroke-linejoin="round" opacity=".96"/><path d="M 352 60 L 350 59 L 343 60 L 330 59 L 325 63 L 325 68 L 318 74 L 318 79 L 320 83 L 324 85 L 333 86 L 338 85 L 345 75 L 350 73 L 354 69 L 354 64 Z" fill="url(#mapFill)" stroke="#caa47c" stroke-width="3.2" stroke-linejoin="round" opacity=".96"/><path d="M 114 303 L 107 303 L 97 311 L 95 320 L 89 326 L 89 330 L 91 333 L 99 334 L 104 330 L 116 330 L 117 329 L 119 308 Z" fill="url(#mapFill)" stroke="#caa47c" stroke-width="3.2" stroke-linejoin="round" opacity=".96"/><path d="M 270 201 L 263 207 L 261 211 L 261 215 L 265 225 L 268 228 L 276 228 L 282 222 L 283 212 L 281 207 L 277 203 Z" fill="url(#mapFill)" stroke="#caa47c" stroke-width="3.2" stroke-linejoin="round" opacity=".96"/><path d="M 319 157 L 316 163 L 316 168 L 321 176 L 327 176 L 333 180 L 338 179 L 342 174 L 341 168 L 338 165 L 333 165 L 331 163 L 331 160 L 327 156 Z" fill="url(#mapFill)" stroke="#caa47c" stroke-width="3.2" stroke-linejoin="round" opacity=".96"/><path d="M 284 255 L 278 260 L 276 267 L 277 274 L 281 278 L 286 279 L 289 278 L 294 271 L 294 262 L 291 258 Z" fill="url(#mapFill)" stroke="#caa47c" stroke-width="3.2" stroke-linejoin="round" opacity=".96"/><path d="M 12 471 L 7 476 L 7 483 L 12 486 L 17 486 L 23 482 L 24 475 L 19 471 Z" fill="url(#mapFill)" stroke="#caa47c" stroke-width="3.2" stroke-linejoin="round" opacity=".96"/><path d="M 763 0 L 759 0 L 753 5 L 740 3 L 731 14 L 720 14 L 708 24 L 697 27 L 688 38 L 685 50 L 669 66 L 651 67 L 650 58 L 644 52 L 644 45 L 639 41 L 618 35 L 613 35 L 607 41 L 600 41 L 599 34 L 591 29 L 580 33 L 569 32 L 562 40 L 545 39 L 540 34 L 519 36 L 512 44 L 510 51 L 502 52 L 496 56 L 489 67 L 489 78 L 480 86 L 464 91 L 448 92 L 439 90 L 436 87 L 435 80 L 430 77 L 426 77 L 413 84 L 402 85 L 394 81 L 394 73 L 386 60 L 378 60 L 373 66 L 373 71 L 379 82 L 386 85 L 386 90 L 393 99 L 393 109 L 383 123 L 377 123 L 372 117 L 358 117 L 354 122 L 355 133 L 366 137 L 366 146 L 362 152 L 362 163 L 366 167 L 375 167 L 377 170 L 375 193 L 367 203 L 355 207 L 353 217 L 340 228 L 321 234 L 311 234 L 304 226 L 297 225 L 291 232 L 292 240 L 297 246 L 312 247 L 325 256 L 331 253 L 332 246 L 336 242 L 345 238 L 357 238 L 361 258 L 355 263 L 355 269 L 352 271 L 349 279 L 349 290 L 327 291 L 316 300 L 304 299 L 300 295 L 291 295 L 284 290 L 277 295 L 276 305 L 264 305 L 263 294 L 268 286 L 267 280 L 260 276 L 248 277 L 245 275 L 242 259 L 247 255 L 247 246 L 240 240 L 238 235 L 230 233 L 223 241 L 223 253 L 216 260 L 208 264 L 197 263 L 189 270 L 188 279 L 190 287 L 186 292 L 179 296 L 170 296 L 164 290 L 157 290 L 144 303 L 146 316 L 153 319 L 166 315 L 169 328 L 187 329 L 187 335 L 181 339 L 181 342 L 176 347 L 161 347 L 154 357 L 142 354 L 137 358 L 122 358 L 115 365 L 112 380 L 98 380 L 92 386 L 92 401 L 88 408 L 93 413 L 105 409 L 108 405 L 123 406 L 129 402 L 139 402 L 148 408 L 159 408 L 170 398 L 182 398 L 189 402 L 194 402 L 205 394 L 217 394 L 232 402 L 253 399 L 264 408 L 265 416 L 278 420 L 292 436 L 303 436 L 308 442 L 313 444 L 313 452 L 319 458 L 317 471 L 323 479 L 329 479 L 333 475 L 347 474 L 349 464 L 359 462 L 368 452 L 381 452 L 384 455 L 385 492 L 382 502 L 374 503 L 367 501 L 363 504 L 361 511 L 344 510 L 341 514 L 341 521 L 331 523 L 327 529 L 327 536 L 319 543 L 313 543 L 308 538 L 304 538 L 298 543 L 298 551 L 296 553 L 289 553 L 284 549 L 279 549 L 276 551 L 273 561 L 266 561 L 261 556 L 255 558 L 251 563 L 251 569 L 255 573 L 255 585 L 241 592 L 240 600 L 244 611 L 252 613 L 254 616 L 256 631 L 255 647 L 259 652 L 268 656 L 266 672 L 270 676 L 282 676 L 284 678 L 285 688 L 295 693 L 296 703 L 302 711 L 302 732 L 298 741 L 288 751 L 284 767 L 284 777 L 273 781 L 268 787 L 267 794 L 272 799 L 294 800 L 295 809 L 304 817 L 311 817 L 320 809 L 321 797 L 325 793 L 347 790 L 353 793 L 365 794 L 369 793 L 376 786 L 384 786 L 400 792 L 406 791 L 415 782 L 415 752 L 424 746 L 426 739 L 430 736 L 442 735 L 451 723 L 468 720 L 472 715 L 472 705 L 474 703 L 481 703 L 486 699 L 492 699 L 497 702 L 505 702 L 509 706 L 519 705 L 522 701 L 522 690 L 527 681 L 529 663 L 533 660 L 539 660 L 542 668 L 547 671 L 569 671 L 574 678 L 583 684 L 588 692 L 599 694 L 624 713 L 641 716 L 650 720 L 662 734 L 687 736 L 691 733 L 692 728 L 708 715 L 713 705 L 714 694 L 723 685 L 721 675 L 723 659 L 732 653 L 734 644 L 728 635 L 715 634 L 710 626 L 697 623 L 698 607 L 692 602 L 692 596 L 698 591 L 711 589 L 713 579 L 708 573 L 703 572 L 705 562 L 700 555 L 700 549 L 706 545 L 708 533 L 705 518 L 697 510 L 697 505 L 707 498 L 707 493 L 711 486 L 726 485 L 731 479 L 731 474 L 728 470 L 730 461 L 728 441 L 732 434 L 732 427 L 737 421 L 752 414 L 754 405 L 759 398 L 782 389 L 794 392 L 812 389 L 825 399 L 836 394 L 855 397 L 859 392 L 869 391 L 872 388 L 872 383 L 865 376 L 865 370 L 869 363 L 868 349 L 877 345 L 884 335 L 894 335 L 897 332 L 894 314 L 899 307 L 899 302 L 896 298 L 884 291 L 884 282 L 881 277 L 866 271 L 861 266 L 861 260 L 855 253 L 836 254 L 834 252 L 834 243 L 829 238 L 821 236 L 800 238 L 790 251 L 780 250 L 775 243 L 775 237 L 772 232 L 763 225 L 761 212 L 757 208 L 750 206 L 750 197 L 754 193 L 754 186 L 746 178 L 743 162 L 746 137 L 740 134 L 732 141 L 718 140 L 718 133 L 727 131 L 732 126 L 734 116 L 738 115 L 742 110 L 739 97 L 744 96 L 748 91 L 745 76 L 752 67 L 752 61 L 758 58 L 760 44 L 767 36 L 768 29 L 765 24 L 765 17 L 769 12 L 769 7 Z" fill="url(#wash)" opacity=".8"/><path d="M 35 409 L 25 413 L 24 427 L 17 435 L 6 435 L 0 440 L 0 446 L 3 449 L 22 452 L 25 462 L 30 465 L 38 463 L 44 458 L 48 452 L 48 443 L 53 443 L 64 436 L 64 429 L 62 427 L 48 424 L 46 415 Z" fill="url(#wash)" opacity=".8"/><path d="M 352 60 L 350 59 L 343 60 L 330 59 L 325 63 L 325 68 L 318 74 L 318 79 L 320 83 L 324 85 L 333 86 L 338 85 L 345 75 L 350 73 L 354 69 L 354 64 Z" fill="url(#wash)" opacity=".8"/><path d="M 114 303 L 107 303 L 97 311 L 95 320 L 89 326 L 89 330 L 91 333 L 99 334 L 104 330 L 116 330 L 117 329 L 119 308 Z" fill="url(#wash)" opacity=".8"/><path d="M 270 201 L 263 207 L 261 211 L 261 215 L 265 225 L 268 228 L 276 228 L 282 222 L 283 212 L 281 207 L 277 203 Z" fill="url(#wash)" opacity=".8"/><path d="M 319 157 L 316 163 L 316 168 L 321 176 L 327 176 L 333 180 L 338 179 L 342 174 L 341 168 L 338 165 L 333 165 L 331 163 L 331 160 L 327 156 Z" fill="url(#wash)" opacity=".8"/><path d="M 284 255 L 278 260 L 276 267 L 277 274 L 281 278 L 286 279 L 289 278 L 294 271 L 294 262 L 291 258 Z" fill="url(#wash)" opacity=".8"/><path d="M 12 471 L 7 476 L 7 483 L 12 486 L 17 486 L 23 482 L 24 475 L 19 471 Z" fill="url(#wash)" opacity=".8"/></g></svg>