<svg xmlns="http://www.w3.org/2000/svg" viewBox="0 0 560 560" role="img" aria-labelledby="title desc">
  <title id="title">福岡県のやさしいデフォルメイラスト</title>
  <desc id="desc">nicottoのホームページに合わせた淡いピンク、黄色、ミントの福岡県イラスト</desc>
  <defs>
    <linearGradient id="base" x1="116" y1="92" x2="458" y2="468" gradientUnits="userSpaceOnUse">
      <stop offset="0" stop-color="#fff7ea"/>
      <stop offset=".48" stop-color="#fff0f3"/>
      <stop offset="1" stop-color="#fff6cd"/>
    </linearGradient>
    <linearGradient id="line" x1="130" y1="124" x2="420" y2="444" gradientUnits="userSpaceOnUse">
      <stop offset="0" stop-color="#f3b7ac"/>
      <stop offset=".58" stop-color="#f6c760"/>
      <stop offset="1" stop-color="#9bd8c8"/>
    </linearGradient>
    <filter id="softShadow" x="-20%" y="-20%" width="140%" height="140%">
      <feDropShadow dx="0" dy="18" stdDeviation="18" flood-color="#8a6a54" flood-opacity=".14"/>
    </filter>
  </defs>

  <circle cx="456" cy="94" r="34" fill="#fff4cc" opacity=".8"/>
  <circle cx="104" cy="128" r="26" fill="#ffe8ed" opacity=".75"/>
  <circle cx="94" cy="438" r="18" fill="#dbf3eb" opacity=".9"/>
  <circle cx="469" cy="424" r="16" fill="#ffe3e9" opacity=".85"/>

  <g filter="url(#softShadow)">
    <path d="M221 79
      C250 64 296 78 313 108
      C332 98 365 102 382 124
      C401 147 391 176 413 193
      C446 219 474 246 466 283
      C459 319 426 326 421 361
      C416 393 438 423 414 449
      C388 477 344 463 316 486
      C286 510 246 496 233 461
      C213 472 179 462 165 436
      C151 411 164 386 145 365
      C121 339 82 321 91 280
      C99 242 137 235 143 201
      C149 167 128 136 153 112
      C173 92 200 96 221 79Z"
      fill="url(#base)" stroke="url(#line)" stroke-width="10" stroke-linejoin="round"/>
    <path d="M224 91
      C250 79 290 91 304 119
      C323 111 350 114 367 134
      C383 153 376 179 397 195
      C426 218 452 246 445 277
      C438 309 408 317 404 350
      C400 378 420 408 397 431
      C375 453 337 440 309 462
      C284 482 253 472 241 442
      C219 453 190 443 179 420
      C167 397 180 376 162 357
      C139 333 108 317 114 283
      C120 250 158 243 162 208
      C166 181 149 151 171 130
      C189 112 209 113 224 91Z"
      fill="#fffaf1" opacity=".45"/>
  </g>

  <g fill="none" stroke="#5b4437" stroke-linecap="round" stroke-linejoin="round">
    <path d="M225 278c9 11 21 17 35 17s26-6 35-17" stroke-width="10"/>
    <path d="M201 239c7-7 18-7 25 0" stroke-width="9"/>
    <path d="M317 239c7-7 18-7 25 0" stroke-width="9"/>
  </g>

  <g>
    <circle cx="195" cy="282" r="18" fill="#ffdce5" opacity=".9"/>
    <circle cx="356" cy="282" r="18" fill="#ffefb8" opacity=".95"/>
  </g>

  <g stroke-linecap="round" stroke-linejoin="round">
    <path d="M156 363c-11 7-21 20-22 35 15-1 29-10 36-22" fill="none" stroke="#eeb0a8" stroke-width="7"/>
    <path d="M146 386c-16 5-28 18-31 35 17-2 31-12 38-27" fill="none" stroke="#eeb0a8" stroke-width="7"/>
    <path d="M405 358c12 6 23 18 25 33-15 0-30-8-38-20" fill="none" stroke="#eac35c" stroke-width="7"/>
    <path d="M415 381c16 4 30 16 34 33-17-1-32-10-40-25" fill="none" stroke="#eac35c" stroke-width="7"/>
  </g>

  <g>
    <circle cx="185" cy="158" r="28" fill="#ffe0e7"/>
    <path d="M173 157c8 12 16 19 25 22 4-9 2-20-8-27-7-5-14-3-17 5Z" fill="#f3a89d"/>
    <path d="M197 155c-7 12-9 21-7 31 10-2 18-10 19-22 1-9-5-14-12-9Z" fill="#f7c65c"/>
  </g>

  <g>
    <circle cx="380" cy="182" r="34" fill="#fff1bd"/>
    <path d="M360 185h36c8 0 14 6 14 14v15c0 8-6 14-14 14h-36c-8 0-14-6-14-14v-15c0-8 6-14 14-14Z" fill="none" stroke="#5b4437" stroke-width="8"/>
    <path d="M363 185v-8c0-8 7-15 15-15s15 7 15 15v8" fill="none" stroke="#5b4437" stroke-width="8"/>
    <path d="M399 193l24-17" fill="none" stroke="#5b4437" stroke-width="7" stroke-linecap="round"/>
  </g>

  <g>
    <circle cx="152" cy="260" r="26" fill="#dbf3eb"/>
    <path d="M142 257c-8 0-14 5-14 13 0 9 8 15 24 25 16-10 24-16 24-25 0-8-6-13-14-13-5 0-8 2-10 6-2-4-5-6-10-6Z" fill="#8acfbf"/>
  </g>

  <g font-family="'HuiFontP29', 'HuiFont', sans-serif" text-anchor="middle">
    <text x="280" y="395" font-size="32" fill="#5b4437" letter-spacing="2">FUKUOKA</text>
    <text x="280" y="430" font-size="25" fill="#7a675b">nicotto</text>
  </g>
</svg>
