<svg xmlns="http://www.w3.org/2000/svg" viewBox="0 0 48 48" role="img" aria-hidden="true">
  <path fill="#06c755" d="M24 5.5c10.6 0 19.2 7.1 19.2 15.9 0 7.9-7 14.5-16.3 15.7-1.4.2-1.7.5-3.8 2.5-1.2 1.1-2.5 2.2-3.6 2.9-.8.5-1.7-.1-1.5-1l.7-3.9C10.5 35.5 4.8 29.3 4.8 21.4 4.8 12.6 13.4 5.5 24 5.5Z"/>
  <path fill="#fff" transform="translate(4 0)" d="M14.2 18.2h2.1v8.2h-2.1v-8.2Zm4 0h2l3.3 4.5v-4.5h2.1v8.2h-2l-3.3-4.5v4.5h-2.1v-8.2Zm9.5 0h6.1v1.9h-4v1.2h3.6v1.8h-3.6v1.4h4.1v1.9h-6.2v-8.2Zm-15.6 6.3v1.9H7.5v-8.2h2.1v6.3h2.5Z"/>
</svg>